<svg viewBox="0 0 183.22527785308122 183.22527785308122" height="183.22527785308122" width="183.22527785308122"><g id="icon-0"><svg viewBox="0 0 183.22527785308122 183.22527785308122" height="183.22527785308122" width="183.22527785308122"><g><path d="M0 91.613c0-50.596 41.016-91.613 91.613-91.613 50.596 0 91.613 41.016 91.612 91.613 0 50.596-41.016 91.613-91.612 91.612-50.596 0-91.613-41.016-91.613-91.612zM91.613 176.439c46.848 0 84.826-37.978 84.826-84.826 0-46.848-37.978-84.826-84.826-84.827-46.848 0-84.826 37.978-84.827 84.827 0 46.848 37.978 84.826 84.827 84.826z" data-fill-palette-color="accent" fill="#332885" stroke="transparent"></path></g><g transform="matrix(1,0,0,1,38.596573398841144,62.64113558752495)"><svg viewBox="0 0 106.03213105539893 57.943006678031324" height="57.943006678031324" width="106.03213105539893"><g><svg xmlns="http://www.w3.org/2000/svg" version="1.1" x="0" y="0" viewBox="0 0 39.16800308227539 21.404001235961914" enable-background="new 0 0 39.167 21.404" xml:space="preserve" width="106.03213105539893" height="57.943006678031324" class="icon-a-0" data-fill-palette-color="accent" id="a-0"><rect x="22.053" y="0.098" transform="matrix(-0.0888 0.9961 -0.9961 -0.0888 38.3583 -16.986)" width="9.792" height="17.909" fill="#332885"></rect><path d="M10.293 0L9.575 8.063c1.2 1.09 1.976 2.64 2.009 4.383 1.962 0.114 3.595 1.405 4.221 3.178l22.025 1.964 1.338-15.014L10.293 0zM36.017 15.424l-19.122-1.706L17.88 2.682l19.121 1.705L36.017 15.424z" fill="#332885" ></path><path d="M11.549 13.022c-0.192 2.533-1.918 4.614-4.265 5.334 0.504 1.756 2.104 3.048 4.022 3.048 2.322 0 4.204-1.882 4.204-4.203C15.509 14.963 13.754 13.15 11.549 13.022" fill="#332885" ></path><path d="M11.016 12.563c0 3.041-2.466 5.507-5.507 5.507C2.466 18.07 0 15.604 0 12.563c0-3.043 2.466-5.509 5.508-5.509C8.549 7.055 11.016 9.521 11.016 12.563" fill="#332885" ></path></svg></g></svg></g></svg></g></svg>